<svg width="24" height="24" viewBox="0 0 24 24" fill="none" xmlns="http://www.w3.org/2000/svg">
<path d="M20.749 0.75H3.24902C1.87402 0.75 0.749023 1.875 0.749023 3.25V20.75C0.749023 22.125 1.87402 23.25 3.24902 23.25H20.749C22.124 23.25 23.249 22.125 23.249 20.75V3.25C23.249 1.875 22.124 0.75 20.749 0.75ZM20.749 20.75H3.24902V3.25H20.749V20.75Z" fill="white"/>
<path d="M6.37402 19.5C7.40956 19.5 8.24902 18.6605 8.24902 17.625C8.24902 16.5895 7.40956 15.75 6.37402 15.75C5.33849 15.75 4.49902 16.5895 4.49902 17.625C4.49902 18.6605 5.33849 19.5 6.37402 19.5Z" fill="white"/>
<path d="M6.37402 8.25C7.40956 8.25 8.24902 7.41053 8.24902 6.375C8.24902 5.33947 7.40956 4.5 6.37402 4.5C5.33849 4.5 4.49902 5.33947 4.49902 6.375C4.49902 7.41053 5.33849 8.25 6.37402 8.25Z" fill="white"/>
<path d="M11.999 13.875C13.0346 13.875 13.874 13.0355 13.874 12C13.874 10.9645 13.0346 10.125 11.999 10.125C10.9635 10.125 10.124 10.9645 10.124 12C10.124 13.0355 10.9635 13.875 11.999 13.875Z" fill="white"/>
<path d="M17.624 19.5C18.6596 19.5 19.499 18.6605 19.499 17.625C19.499 16.5895 18.6596 15.75 17.624 15.75C16.5885 15.75 15.749 16.5895 15.749 17.625C15.749 18.6605 16.5885 19.5 17.624 19.5Z" fill="white"/>
<path d="M17.624 8.25C18.6596 8.25 19.499 7.41053 19.499 6.375C19.499 5.33947 18.6596 4.5 17.624 4.5C16.5885 4.5 15.749 5.33947 15.749 6.375C15.749 7.41053 16.5885 8.25 17.624 8.25Z" fill="white"/>
</svg>
