<svg width="23" height="26" viewBox="0 0 23 26" fill="none" xmlns="http://www.w3.org/2000/svg">
<path d="M18.833 14.2508H17.983L15.483 16.7508H17.8705L20.083 19.2508H2.58301L4.80801 16.7508H7.37051L4.87051 14.2508H3.83301L0.0830078 18.0008V23.0008C0.0830078 24.3758 1.19551 25.5008 2.57051 25.5008H20.083C21.458 25.5008 22.583 24.3883 22.583 23.0008V18.0008L18.833 14.2508ZM20.083 23.0008H2.58301V21.7508H20.083V23.0008ZM10.508 16.7758C10.9955 17.2633 11.783 17.2633 12.2705 16.7758L20.2205 8.82584C20.708 8.33834 20.708 7.55084 20.2205 7.06334L14.033 0.875845C13.558 0.375845 12.7705 0.375845 12.283 0.863345L4.32051 8.82584C3.83301 9.31334 3.83301 10.1008 4.32051 10.5883L10.508 16.7758ZM13.158 3.51334L17.583 7.93834L11.3955 14.1258L6.97051 9.70084L13.158 3.51334Z" fill="white"/>
</svg>
