<svg width="31" height="29" viewBox="0 0 31 29" fill="none" xmlns="http://www.w3.org/2000/svg">
<path opacity="0.3" d="M26.291 16.2116C27.3265 16.2116 28.166 15.385 28.166 14.3654C28.166 13.3458 27.3265 12.5193 26.291 12.5193C25.2555 12.5193 24.416 13.3458 24.416 14.3654C24.416 15.385 25.2555 16.2116 26.291 16.2116Z" fill="white"/>
<path opacity="0.3" d="M24.1929 0.271477L4.8744 5.36822C4.20757 5.54415 3.81184 6.21903 3.99052 6.8756L5.60814 12.8198C5.78681 13.4763 6.47223 13.866 7.13907 13.69L26.4576 8.5933C27.1244 8.41737 27.5201 7.7425 27.3415 7.08592L25.7238 1.14176C25.5452 0.485188 24.8597 0.0955487 24.1929 0.271477Z" fill="white"/>
<path fill-rule="evenodd" clip-rule="evenodd" d="M28.166 10.4722C27.5977 10.2064 26.962 10.0577 26.291 10.0577C23.8748 10.0577 21.916 11.9863 21.916 14.3653C21.916 16.7444 23.8748 18.673 26.291 18.673C26.962 18.673 27.5977 18.5243 28.166 18.2585V21.1346C28.166 22.494 27.0467 23.5961 25.666 23.5961H5.66602C4.2853 23.5961 3.16602 22.494 3.16602 21.1346V6.36535C3.16602 5.00588 4.2853 3.90381 5.66602 3.90381H25.666C27.0467 3.90381 28.166 5.00588 28.166 6.36535V10.4722Z" fill="white"/>
</svg>
